<svg width="132" height="34" viewBox="0 0 132 34" fill="none" xmlns="http://www.w3.org/2000/svg">
<rect x="1" y="1" width="130" height="32" rx="4" fill="white" stroke="#3D5A98"/>
<path d="M44.882 24C44.738 24 44.684 23.91 44.756 23.784L50.786 11.616C50.858 11.49 50.984 11.4 51.128 11.4H52.622C52.748 11.4 52.802 11.49 52.748 11.616L46.7 23.784C46.646 23.91 46.502 24 46.376 24H44.882ZM54.3918 24C54.2478 24 54.2118 23.91 54.2658 23.802L59.8998 13.866C60.0438 13.596 59.9358 13.416 59.6298 13.416H55.2738C55.1478 13.416 55.0398 13.326 55.0398 13.182V11.634C55.0398 11.49 55.1478 11.4 55.2738 11.4H63.5538C63.6978 11.4 63.7518 11.472 63.6798 11.598L58.0638 21.534C57.9018 21.804 58.0098 21.984 58.3158 21.984H63.6438C63.7878 21.984 63.8778 22.074 63.8778 22.218V23.766C63.8778 23.91 63.7878 24 63.6438 24H54.3918ZM66.0708 19.446C66.0708 19.302 66.1608 19.212 66.3048 19.212H67.9968C68.1408 19.212 68.2128 19.302 68.2308 19.446C68.3388 21.246 69.7608 22.164 71.1648 22.164C72.6408 22.164 74.0988 21.174 74.0988 19.212V11.634C74.0988 11.49 74.1888 11.4 74.3328 11.4H76.0248C76.1508 11.4 76.2588 11.49 76.2588 11.634V19.212C76.2588 22.686 73.7208 24.432 71.1648 24.432C68.6808 24.432 66.1788 22.758 66.0708 19.446ZM66.0708 17.016V11.634C66.0708 11.49 66.1608 11.4 66.3048 11.4H67.9968C68.1408 11.4 68.2308 11.49 68.2308 11.634V17.016C68.2308 17.16 68.1408 17.25 67.9968 17.25H66.3048C66.1608 17.25 66.0708 17.16 66.0708 17.016ZM78.2072 11.598C78.1532 11.49 78.1892 11.4 78.3332 11.4H80.1872C80.3312 11.4 80.4752 11.49 80.5292 11.598L84.3092 18.474C84.3632 18.582 84.4172 18.762 84.4172 18.906V23.766C84.4172 23.91 84.3272 24 84.1832 24H82.4912C82.3472 24 82.2572 23.91 82.2572 23.766V19.5C82.2572 19.194 82.1672 18.816 82.0232 18.546L78.2072 11.598ZM84.0212 15.864C83.9672 15.756 83.9492 15.594 84.0212 15.468L86.1452 11.598C86.1992 11.49 86.3612 11.4 86.4872 11.4H88.3412C88.4852 11.4 88.5392 11.472 88.4672 11.598L85.1552 17.448C85.0832 17.574 84.9932 17.574 84.9212 17.448L84.0212 15.864ZM90.0385 22.884C90.0385 22.236 90.5605 21.732 91.2085 21.732C91.8565 21.732 92.3605 22.236 92.3605 22.884C92.3605 23.532 91.8565 24.054 91.2085 24.054C90.5605 24.054 90.0385 23.532 90.0385 22.884ZM94.768 13.416C94.624 13.416 94.534 13.326 94.534 13.182V11.634C94.534 11.49 94.624 11.4 94.768 11.4H97.756C98.242 11.4 98.584 11.4 98.782 11.418C102.724 11.688 104.704 14.694 104.704 17.7C104.704 20.706 102.724 23.622 98.782 23.982C98.584 24 98.242 24 97.756 24H94.768C94.624 24 94.534 23.91 94.534 23.766V15.396C94.534 15.252 94.624 15.162 94.768 15.162H96.46C96.604 15.162 96.694 15.252 96.694 15.396V21.462C96.694 21.768 96.892 21.966 97.198 21.966H97.666C98.188 21.966 98.494 21.966 98.692 21.948C103.858 21.444 103.714 13.416 98.17 13.416H94.768ZM107.389 13.416C107.245 13.416 107.155 13.326 107.155 13.182V11.634C107.155 11.49 107.245 11.4 107.389 11.4H110.377C110.863 11.4 111.205 11.4 111.403 11.418C115.345 11.688 117.325 14.694 117.325 17.7C117.325 20.706 115.345 23.622 111.403 23.982C111.205 24 110.863 24 110.377 24H107.389C107.245 24 107.155 23.91 107.155 23.766V15.396C107.155 15.252 107.245 15.162 107.389 15.162H109.081C109.225 15.162 109.315 15.252 109.315 15.396V21.462C109.315 21.768 109.513 21.966 109.819 21.966H110.287C110.809 21.966 111.115 21.966 111.313 21.948C116.479 21.444 116.335 13.416 110.791 13.416H107.389Z" fill="#3D5A98"/>
<path d="M1 5C1 2.79086 2.79086 1 5 1H33V33H5C2.79086 33 1 31.2091 1 29V5Z" fill="#3D5A98"/>
<path d="M22.583 33.4681V21.8509H26.4816L27.0646 17.3236H22.583V14.4339C22.583 13.1234 22.948 12.2286 24.8264 12.2286H27.2243V8.17279C26.0631 8.05199 24.8962 7.99445 23.7288 8.00042C20.2763 8.00042 17.8986 10.1043 17.8986 13.9852V17.3236H14V21.8509H17.8986V33.4681H22.583Z" fill="white"/>
</svg>
