<svg width="132" height="34" viewBox="0 0 132 34" fill="none" xmlns="http://www.w3.org/2000/svg">
<rect x="1" y="1" width="130" height="32" rx="4" fill="white" stroke="#2BACEF"/>
<path d="M44.882 24C44.738 24 44.684 23.91 44.756 23.784L50.786 11.616C50.858 11.49 50.984 11.4 51.128 11.4H52.622C52.748 11.4 52.802 11.49 52.748 11.616L46.7 23.784C46.646 23.91 46.502 24 46.376 24H44.882ZM54.3918 24C54.2478 24 54.2118 23.91 54.2658 23.802L59.8998 13.866C60.0438 13.596 59.9358 13.416 59.6298 13.416H55.2738C55.1478 13.416 55.0398 13.326 55.0398 13.182V11.634C55.0398 11.49 55.1478 11.4 55.2738 11.4H63.5538C63.6978 11.4 63.7518 11.472 63.6798 11.598L58.0638 21.534C57.9018 21.804 58.0098 21.984 58.3158 21.984H63.6438C63.7878 21.984 63.8778 22.074 63.8778 22.218V23.766C63.8778 23.91 63.7878 24 63.6438 24H54.3918ZM66.0708 19.446C66.0708 19.302 66.1608 19.212 66.3048 19.212H67.9968C68.1408 19.212 68.2128 19.302 68.2308 19.446C68.3388 21.246 69.7608 22.164 71.1648 22.164C72.6408 22.164 74.0988 21.174 74.0988 19.212V11.634C74.0988 11.49 74.1888 11.4 74.3328 11.4H76.0248C76.1508 11.4 76.2588 11.49 76.2588 11.634V19.212C76.2588 22.686 73.7208 24.432 71.1648 24.432C68.6808 24.432 66.1788 22.758 66.0708 19.446ZM66.0708 17.016V11.634C66.0708 11.49 66.1608 11.4 66.3048 11.4H67.9968C68.1408 11.4 68.2308 11.49 68.2308 11.634V17.016C68.2308 17.16 68.1408 17.25 67.9968 17.25H66.3048C66.1608 17.25 66.0708 17.16 66.0708 17.016ZM78.2072 11.598C78.1532 11.49 78.1892 11.4 78.3332 11.4H80.1872C80.3312 11.4 80.4752 11.49 80.5292 11.598L84.3092 18.474C84.3632 18.582 84.4172 18.762 84.4172 18.906V23.766C84.4172 23.91 84.3272 24 84.1832 24H82.4912C82.3472 24 82.2572 23.91 82.2572 23.766V19.5C82.2572 19.194 82.1672 18.816 82.0232 18.546L78.2072 11.598ZM84.0212 15.864C83.9672 15.756 83.9492 15.594 84.0212 15.468L86.1452 11.598C86.1992 11.49 86.3612 11.4 86.4872 11.4H88.3412C88.4852 11.4 88.5392 11.472 88.4672 11.598L85.1552 17.448C85.0832 17.574 84.9932 17.574 84.9212 17.448L84.0212 15.864ZM90.8305 13.416C90.6865 13.416 90.5965 13.326 90.5965 13.182V11.634C90.5965 11.49 90.6865 11.4 90.8305 11.4H93.8185C94.3045 11.4 94.6465 11.4 94.8445 11.418C98.7865 11.688 100.767 14.694 100.767 17.7C100.767 20.706 98.7865 23.622 94.8445 23.982C94.6465 24 94.3045 24 93.8185 24H90.8305C90.6865 24 90.5965 23.91 90.5965 23.766V15.396C90.5965 15.252 90.6865 15.162 90.8305 15.162H92.5225C92.6665 15.162 92.7565 15.252 92.7565 15.396V21.462C92.7565 21.768 92.9545 21.966 93.2605 21.966H93.7285C94.2505 21.966 94.5565 21.966 94.7545 21.948C99.9205 21.444 99.7765 13.416 94.2325 13.416H90.8305ZM103.452 13.416C103.308 13.416 103.218 13.326 103.218 13.182V11.634C103.218 11.49 103.308 11.4 103.452 11.4H106.44C106.926 11.4 107.268 11.4 107.466 11.418C111.408 11.688 113.388 14.694 113.388 17.7C113.388 20.706 111.408 23.622 107.466 23.982C107.268 24 106.926 24 106.44 24H103.452C103.308 24 103.218 23.91 103.218 23.766V15.396C103.218 15.252 103.308 15.162 103.452 15.162H105.144C105.288 15.162 105.378 15.252 105.378 15.396V21.462C105.378 21.768 105.576 21.966 105.882 21.966H106.35C106.872 21.966 107.178 21.966 107.376 21.948C112.542 21.444 112.398 13.416 106.854 13.416H103.452Z" fill="#2BACEF"/>
<path d="M1 5C1 2.79086 2.79086 1 5 1H33V33H5C2.79086 33 1 31.2091 1 29V5Z" fill="#2BACEF"/>
<g clip-path="url(#clip0_231_44)">
<path d="M17 1C12.7575 1 8.685 2.68675 5.6875 5.68625C2.68693 8.68696 1.00086 12.7565 1 17C1 21.2417 2.6875 25.3142 5.6875 28.3137C8.685 31.3132 12.7575 33 17 33C21.2425 33 25.315 31.3132 28.3125 28.3137C31.3125 25.3142 33 21.2417 33 17C33 12.7583 31.3125 8.68575 28.3125 5.68625C25.315 2.68675 21.2425 1 17 1Z" fill="url(#paint0_linear_231_44)"/>
<path d="M8.2425 16.831C12.9075 14.799 16.0175 13.4593 17.5725 12.812C22.0175 10.9637 22.94 10.6427 23.5425 10.6319C23.675 10.6297 23.97 10.6625 24.1625 10.8181C24.3225 10.9494 24.3675 11.1269 24.39 11.2515C24.41 11.376 24.4375 11.6597 24.415 11.8812C24.175 14.4112 23.1325 20.5507 22.6025 23.3845C22.38 24.5835 21.9375 24.9855 21.51 25.0247C20.58 25.1102 19.875 24.4107 18.975 23.821C17.5675 22.8977 16.7725 22.3232 15.405 21.4225C13.825 20.3815 14.85 19.8092 15.75 18.8742C15.985 18.6295 20.08 14.9057 20.1575 14.568C20.1675 14.5257 20.1775 14.3682 20.0825 14.2852C19.99 14.202 19.8525 14.2305 19.7525 14.253C19.61 14.285 17.3625 15.772 13.0025 18.7137C12.365 19.1522 11.7875 19.366 11.2675 19.3547C10.6975 19.3425 9.5975 19.0317 8.78 18.7662C7.78 18.4405 6.9825 18.2682 7.0525 17.715C7.0875 17.427 7.485 17.1322 8.2425 16.831Z" fill="white"/>
</g>
<defs>
<linearGradient id="paint0_linear_231_44" x1="1601" y1="1" x2="1601" y2="3201" gradientUnits="userSpaceOnUse">
<stop stop-color="#2AABEE"/>
<stop offset="1" stop-color="#229ED9"/>
</linearGradient>
<clipPath id="clip0_231_44">
<rect width="32" height="32" fill="white" transform="translate(1 1)"/>
</clipPath>
</defs>
</svg>
